<svg id="Layer_1" height="512" viewBox="0 0 512 512" width="512" xmlns="http://www.w3.org/2000/svg"><path d="m464.899 87.551h-46.039c5.354-6.745 8.564-15.265 8.564-24.525 0-21.794-17.731-39.525-39.525-39.525-33.753 0-70.412 21.418-88.957 33.938v-2.11c0-4.143-3.358-7.5-7.5-7.5h-70.885c-4.142 0-7.5 3.357-7.5 7.5v2.11c-18.544-12.521-55.203-33.939-88.956-33.939-21.794 0-39.525 17.731-39.525 39.525 0 9.261 3.21 17.78 8.564 24.525h-46.039c-4.142 0-7.5 3.357-7.5 7.5v83.183c0 4.143 3.358 7.5 7.5 7.5h16.218v295.267c0 4.143 3.358 7.5 7.5 7.5h370.362c4.142 0 7.5-3.357 7.5-7.5v-295.267h16.218c4.142 0 7.5-3.357 7.5-7.5v-83.182c0-4.143-3.358-7.5-7.5-7.5zm-77-49.051c13.523 0 24.525 11.002 24.525 24.525s-11.002 24.525-24.525 24.525h-88.957v-11.733c11.175-8.229 53.211-37.317 88.957-37.317zm-103.957 24.327v24.724h-55.885v-24.724zm149.739 294.733h-134.739v-55.885h134.739zm-149.739 115.94h-55.885v-287.767h55.885zm-205.623-171.825h134.739v55.885h-134.739zm149.739-130.942v-68.183h55.885v68.183zm-128.482-107.708c0-13.523 11.002-24.525 24.525-24.525 35.747 0 77.783 29.089 88.957 37.317v11.733h-88.957c-13.523.001-24.525-11.001-24.525-24.525zm-44.975 39.526h158.457v68.183h-158.457zm158.457 83.182v100.941h-134.739v-100.941zm-134.739 186.827h134.739v100.94h-134.739zm220.623 100.94v-100.94h134.739v100.94zm134.739-186.825h-134.739v-100.942h134.739zm23.718-115.942h-16.218-142.239v-68.183h158.457z"/></svg>