<svg clip-rule="evenodd" fill-rule="evenodd" height="512" image-rendering="optimizeQuality" shape-rendering="geometricPrecision" text-rendering="geometricPrecision" viewBox="0 0 512 512" width="512" xmlns="http://www.w3.org/2000/svg"><g id="Layer_x0020_1"><g id="_660064432" fill-rule="nonzero"><path d="m26 13h460c7 0 13 3 18 8s8 11 8 19v432c0 8-3 14-8 19s-11 8-18 8h-460c-7 0-13-3-18-8s-8-11-8-19v-432c0-8 3-14 8-19s11-8 18-8zm460 12h-460c-4 0-7 2-10 5-2 2-4 6-4 10v432c0 4 2 8 4 10 3 3 6 5 10 5h460c4 0 7-2 10-5 2-2 4-6 4-10v-432c0-4-2-8-4-10-3-3-6-5-10-5z"/><path d="m6 75c-3 0-6 2-6 6 0 3 3 6 6 6h500c3 0 6-3 6-6 0-4-3-6-6-6z"/><path d="m58 30c6 0 11 2 14 6 4 3 6 8 6 14s-2 11-6 14c-3 4-8 6-14 6s-11-2-14-6c-4-3-6-8-6-14s2-11 6-14c3-4 8-6 14-6zm6 14c-2-1-4-2-6-2s-4 1-6 2c-1 2-2 4-2 6s1 4 2 6c2 1 4 2 6 2s4-1 6-2c1-2 2-4 2-6s-1-4-2-6z"/><path d="m462 37c0-3-2-6-6-6-3 0-6 3-6 6v26c0 3 3 6 6 6 4 0 6-3 6-6z"/><path d="m469 56c4 0 6-3 6-6s-2-6-6-6h-26c-3 0-6 3-6 6s3 6 6 6z"/><path d="m116 30c5 0 10 2 14 6 3 3 6 8 6 14s-3 11-6 14c-4 4-9 6-14 6-6 0-11-2-15-6-3-3-6-8-6-14s3-11 6-14c4-4 9-6 15-6zm5 14c-1-1-3-2-5-2-3 0-5 1-6 2-2 2-3 4-3 6s1 4 3 6c1 1 3 2 6 2 2 0 4-1 5-2 2-2 3-4 3-6s-1-4-3-6z"/><path d="m173 30c6 0 11 2 14 6l-4 4 4-4c4 3 6 8 6 14s-2 11-6 14v1c-4 3-9 5-14 5-6 0-11-2-14-6-4-3-6-8-6-14s2-11 6-14c3-4 8-6 14-6zm6 14c-2-1-4-2-6-2s-4 1-6 2c-1 2-2 4-2 6s1 4 2 6c2 1 4 2 6 2s4-1 6-2c1-2 2-4 2-6s-1-4-2-6z"/><path d="m257 132c43 0 82 17 110 45 29 29 46 68 46 111 0 44-17 83-46 111-28 28-67 46-110 46-44 0-83-18-111-46-29-28-46-67-46-111 0-43 17-82 46-111 28-28 67-45 111-45zm102 54c-26-26-63-42-102-42-40 0-77 16-103 42s-42 62-42 102 16 76 42 103c26 26 63 42 103 42 39 0 76-16 102-42 26-27 42-63 42-103s-16-76-42-102z"/><path d="m257 132c21 0 41 18 55 47 13 28 21 67 21 109 0 43-8 81-21 109-14 30-34 48-55 48-22 0-42-18-55-48-13-28-22-66-22-109 0-42 9-81 22-109 13-29 33-47 55-47zm44 52c-12-25-28-40-44-40-17 0-33 15-45 40-12 27-20 63-20 104s8 78 20 104c12 25 28 41 45 41 16 0 32-16 44-41 12-26 20-63 20-104s-8-77-20-104z"/><path d="m413 288c0 22-18 42-47 55-28 13-67 21-109 21-43 0-82-8-110-21-29-13-47-33-47-55s18-41 47-55c28-13 67-21 110-21 42 0 81 8 109 21 29 14 47 33 47 55zm-52 44c25-11 40-27 40-44s-15-32-40-44c-27-12-64-20-104-20-41 0-78 8-105 20-25 12-40 27-40 44s15 33 40 44c27 13 64 20 105 20 40 0 77-7 104-20z"/><path d="m263 138c0-4-3-6-6-6-4 0-6 2-6 6v301c0 3 2 6 6 6 3 0 6-3 6-6z"/><path d="m407 294c4 0 6-2 6-6 0-3-2-6-6-6h-301c-4 0-6 3-6 6 0 4 2 6 6 6z"/></g></g></svg>